Exact Audio Copy V1.0 beta 3 from 29. August 2011

Отчёт EAC об извлечении, выполненном 8. марта 2012, 3:03

Necromantia & Varathron / Black Arts Lead To Everlasting Sins

Дисковод: TSSTcorpCDDVDW SH-222AB   Adapter: 1  ID: 1

Режим чтения                 : Достоверность
Использование точного потока : Да
Отключение кэша аудио        : Да
Использование указателей C2  : Нет

Коррекция смещения при чтении                     : 6
Способность читать области Lead-in и Lead-out     : Нет
Заполнение пропущенных сэмплов тишиной            : Да
Удаление блоков с тишиной в начале и конце        : Нет
При вычислениях CRC использовались нулевые сэмплы : Да
Интерфейс                                         : Встроенный Win32-интерфейс для Win NT/2000

Выходной формат          : Пользовательский кодировщик
Выбранный битрейт        : 32 kBit/s
Качество                 : Высокий
Добавление ID3-тега      : Нет
Утилита сжатия           : C:\Program Files\Exact Audio Copy\Flac\flac.exe
Дополнительные параметры : -hm -w "Year=%year%" -w "Genre=%genre%" %source% %dest%


TOC извлечённого CD

     Трек |   Старт  | Длительность | Начальный сектор | Конечный сектор 
    ---------------------------------------------------------------------
       1  |  0:00.32 |    7:50.33   |          32      |      35314      
       2  |  7:50.65 |    5:33.67   |       35315      |      60356      
       3  | 13:24.57 |    5:43.70   |       60357      |      86151      
       4  | 19:08.52 |    1:43.63   |       86152      |      93939      
       5  | 20:52.40 |   10:04.07   |       93940      |     139246      
       6  | 30:56.47 |    2:26.55   |      139247      |     150251      
       7  | 33:23.27 |    7:14.55   |      150252      |     182856      
       8  | 40:38.07 |    6:09.10   |      182857      |     210541      
       9  | 46:47.17 |    0:49.23   |      210542      |     214239      
      10  | 47:36.40 |    3:28.67   |      214240      |     229906      
      11  | 51:05.32 |    3:09.50   |      229907      |     244131      


Характеристики диапазона извлечения и сообщения об ошибках

Выбранный диапазон

     Имя файла D:\music\Necromantia\Necromantia - 1994 - Black Arts Leads To Everlasting Sins (Split)\Necromantia & Varathron - Black Arts Lead To Everlasting Sins.wav

     Пиковый уровень 100.0 %
     Скорость извлечения 2.4 X
     Качество диапазона 100.0 %
     CRC теста 572BBD86
     CRC копии 572BBD86
     Копирование... OK

Ошибок не произошло

 
AccurateRip: сводка
 
Трек  1  точность не определена (достоверность 3)  [8FBA12DD], AccurateRip вернул [CB8FDBC5]  (AR v2)
Трек  2  точность не определена (достоверность 3)  [81FFD79C], AccurateRip вернул [257A9E40]  (AR v2)
Трек  3  точность не определена (достоверность 3)  [844BF555], AccurateRip вернул [D1F24CE5]  (AR v2)
Трек  4  точность не определена (достоверность 3)  [8E01BAEF], AccurateRip вернул [51711FF0]  (AR v2)
Трек  5  точность не определена (достоверность 3)  [4AF48321], AccurateRip вернул [12DCFF8E]  (AR v2)
Трек  6  точность не определена (достоверность 3)  [588047E8], AccurateRip вернул [61D16CFD]  (AR v2)
Трек  7  точность не определена (достоверность 3)  [F83A3ABD], AccurateRip вернул [268248B1]  (AR v2)
Трек  8  точность не определена (достоверность 3)  [B08A3852], AccurateRip вернул [5DD14CB2]  (AR v2)
Трек  9  точность не определена (достоверность 3)  [02292F82], AccurateRip вернул [E17E12B8]  (AR v2)
Трек 10  точность не определена (достоверность 3)  [26497301], AccurateRip вернул [D1A91422]  (AR v2)
Трек 11  точность не определена (достоверность 3)  [B6A3A93C], AccurateRip вернул [BECA935F]  (AR v2)
 
Ни один трек не прошёл проверки на точность
В вашей базе может быть иной вариант штамповки диска

Конец отчёта

==== Контрольная сумма отчёта 934E1ABA5A24D8F93052EE8D0B952ED28D0AD54BE9C4C662D990F131422F1914 ====
